Coordinates
nRows=410
nColumns=2
inDegrees=yes
endheader
time	ankle_angle_r	
1.33065	 18.662718	
1.36391	 18.692017	
1.39718	 18.722534	
1.43044	 18.677687	
1.46371	 18.662331	
1.49698	 18.707275	
1.53024	 18.676758	
1.56351	 18.677299	
1.59677	 18.692017	
1.63004	 18.691319	
1.66331	 18.661499	
1.69657	 18.707430	
1.72984	 18.615898	
1.7631	 18.585167	
1.79637	 18.615858	
1.82964	 18.569483	
1.8629	 18.539429	
1.89617	 18.676758	
1.92944	 18.616243	
1.9627	 18.646240	
1.99597	 18.722534	
2.02923	 18.660688	
2.0625	 18.647148	
2.09577	 18.646240	
2.12903	 18.662601	
2.1623	 18.675560	
2.19556	 18.660204	
2.22883	 18.647633	
2.2621	 18.600464	
2.29536	 18.661499	
2.32863	 18.659817	
2.3619	 18.686682	
2.39516	 18.630981	
2.42843	 18.613750	
2.46169	 18.674690	
2.49496	 18.674593	
2.52823	 18.615723	
2.56149	 18.704916	
2.59476	 18.722534	
2.62802	 18.646240	
2.66129	 18.674109	
2.69456	 18.646240	
2.72782	 18.600464	
2.76109	 18.722534	
2.79435	 18.719500	
2.82762	 18.676357	
2.86089	 18.716076	
2.89415	 18.731142	
2.92742	 18.676758	
2.96069	 18.741312	
2.99395	 18.753052	
3.02722	 18.707275	
3.06048	 18.749243	
3.09375	 18.737793	
3.12702	 18.665501	
3.16028	 18.722534	
3.19355	 18.764114	
3.22681	 18.700602	
3.26008	 18.753052	
3.29335	 18.751249	
3.32661	 18.711857	
3.35988	 18.727213	
3.39315	 18.732086	
3.42641	 18.702402	
3.45968	 18.748083	
3.49294	 18.753052	
3.52621	 18.692017	
3.55948	 18.737793	
3.59274	 18.712631	
3.62601	 18.707275	
3.65927	 18.733633	
3.69254	 18.697662	
3.72581	 18.697760	
3.75907	 18.734213	
3.79234	 18.676758	
3.8256	 18.676758	
3.85887	 18.722534	
3.89214	 18.667725	
3.9254	 18.667822	
3.95867	 18.600464	
3.99194	 18.661499	
4.0252	 18.637594	
4.05847	 18.639530	
4.09173	 18.639435	
4.125	 18.646240	
4.15827	 18.669758	
4.19153	 18.607559	
4.2248	 18.577139	
4.25806	 18.669468	
4.29133	 18.638853	
4.3246	 18.630981	
4.35786	 18.692017	
4.39113	 18.646147	
4.4244	 18.645952	
4.45766	 18.653629	
4.49093	 18.601137	
4.52419	 18.654303	
4.55746	 18.654400	
4.59073	 18.662752	
4.62399	 18.537981	
4.65726	 18.675117	
4.69052	 18.615723	
4.72379	 18.576563	
4.75706	 18.637501	
4.79032	 18.637403	
4.82359	 18.622047	
4.85685	 18.670528	
4.89012	 18.576078	
4.92339	 18.621758	
4.95665	 18.682697	
4.98992	 18.646240	
5.02319	 18.617701	
5.05645	 18.692017	
5.08972	 18.636534	
5.12298	 18.636436	
5.15625	 18.676758	
5.18952	 18.640978	
5.22278	 18.707275	
5.25605	 18.686895	
5.28931	 18.651213	
5.32258	 18.742668	
5.35585	 18.676758	
5.38911	 18.676758	
5.42238	 18.713364	
5.45565	 18.707275	
5.48891	 18.646240	
5.52218	 18.646240	
5.55544	 18.692017	
5.58871	 18.615723	
5.62198	 18.696022	
5.65524	 18.768311	
5.68851	 18.562311	
5.72177	 18.619438	
5.75504	 18.665117	
5.78831	 18.673237	
5.82157	 18.642815	
5.85484	 18.685360	
5.8881	 18.688786	
5.92137	 18.704140	
5.95464	 18.707275	
5.9879	 18.630981	
6.02117	 18.719688	
6.05444	 18.725283	
6.0877	 18.692017	
6.12097	 18.725088	
6.15423	 18.692017	
6.1875	 18.633343	
6.22077	 18.707275	
6.25403	 18.644072	
6.2873	 18.630981	
6.32056	 18.722534	
6.35383	 18.707275	
6.3871	 18.676758	
6.42036	 18.656445	
6.45363	 18.671993	
6.4869	 18.643257	
6.52016	 18.676758	
6.55343	 18.632278	
6.58669	 18.675556	
6.61996	 18.708380	
6.65323	 18.675751	
6.68649	 18.661499	
6.71976	 18.707275	
6.75302	 18.678194	
6.78629	 18.677380	
6.81956	 18.721485	
6.85282	 18.646667	
6.88609	 18.691685	
6.91935	 18.722769	
6.95262	 18.676758	
6.98589	 18.676800	
7.01915	 18.707275	
7.05242	 18.676910	
7.08569	 18.646738	
7.11895	 18.707621	
7.15222	 18.676315	
7.18548	 18.676758	
7.21875	 18.721899	
7.25202	 18.662964	
7.28528	 18.663157	
7.31855	 18.708200	
7.35181	 18.676758	
7.38508	 18.675638	
7.41835	 18.707275	
7.45161	 18.661499	
7.48488	 18.660089	
7.51815	 18.692017	
7.55141	 18.663101	
7.58468	 18.647940	
7.61794	 18.720737	
7.65121	 18.688231	
7.68448	 18.672779	
7.71774	 18.646240	
7.75101	 18.569946	
7.78427	 18.587484	
7.81754	 18.659122	
7.85081	 18.626036	
7.88407	 18.628412	
7.91734	 18.618389	
7.9506	 18.600464	
7.98387	 18.628122	
8.01714	 18.658543	
8.0504	 18.582151	
8.08367	 18.655199	
8.11694	 18.683250	
8.1502	 18.581861	
8.18347	 18.722534	
8.21673	 18.654427	
8.25	 18.730526	
8.28327	 18.611994	
8.31653	 18.627155	
8.3498	 18.646240	
8.38306	 18.733772	
8.41633	 18.707275	
8.4496	 18.687803	
8.48286	 18.707275	
8.51613	 18.685572	
8.5494	 18.667751	
8.58266	 18.611122	
8.61593	 18.626286	
8.64919	 18.661499	
8.68246	 18.646240	
8.71573	 18.676758	
8.74899	 18.630981	
8.78226	 18.692017	
8.81552	 18.630981	
8.84879	 18.656126	
8.88206	 18.630981	
8.91532	 18.686449	
8.94859	 18.651903	
8.98185	 18.697777	
9.01512	 18.707275	
9.04839	 18.579252	
9.08165	 18.624931	
9.11492	 18.682905	
9.14819	 18.637224	
9.18145	 18.746712	
9.21472	 18.722534	
9.24798	 18.676758	
9.28125	 18.676758	
9.31452	 18.705471	
9.34778	 18.602076	
9.38105	 18.661499	
9.41431	 18.669741	
9.44758	 18.629950	
9.48085	 18.646240	
9.51411	 18.569302	
9.54738	 18.668903	
9.58065	 18.684258	
9.61391	 18.699549	
9.64718	 18.653934	
9.68044	 18.676758	
9.71371	 18.547316	
9.74698	 18.608448	
9.78024	 18.631884	
9.81351	 18.569946	
9.84677	 18.639256	
9.88004	 18.692017	
9.91331	 18.624189	
9.94657	 18.617592	
9.97984	 18.685419	
10.0131	 18.624479	
10.0464	 18.609318	
10.0796	 18.667807	
10.1129	 18.578993	
10.1462	 18.646240	
10.1794	 18.692017	
10.2127	 18.575867	
10.246	 18.554688	
10.2792	 18.707275	
10.3125	 18.610092	
10.3458	 18.564411	
10.379	 18.580822	
10.4123	 18.635557	
10.4456	 18.640995	
10.4788	 18.737608	
10.5121	 18.559738	
10.5454	 18.559643	
10.5786	 18.580347	
10.6119	 18.554688	
10.6452	 18.534765	
10.6784	 18.615723	
10.7117	 18.672287	
10.745	 18.622232	
10.7782	 18.646240	
10.8115	 18.604645	
10.8448	 18.642157	
10.878	 18.692017	
10.9113	 18.650131	
10.9446	 18.604258	
10.9778	 18.608328	
11.0111	 18.561890	
11.0444	 18.603968	
11.0776	 18.581799	
11.1109	 18.661499	
11.1442	 18.567543	
11.1774	 18.676758	
11.2107	 18.563749	
11.244	 18.624495	
11.2772	 18.673931	
11.3105	 18.676758	
11.3437	 18.682026	
11.377	 18.600464	
11.4103	 18.590086	
11.4435	 18.600464	
11.4768	 18.582958	
11.5101	 18.633131	
11.5433	 18.633036	
11.5766	 18.690060	
11.6099	 18.659639	
11.6431	 18.709040	
11.6764	 18.753052	
11.7097	 18.646240	
11.7429	 18.692017	
11.7762	 18.708652	
11.8095	 18.679319	
11.8427	 18.722534	
11.876	 18.724709	
11.9093	 18.707275	
11.9425	 18.767416	
11.9758	 18.722534	
12.0091	 18.693417	
12.0423	 18.737793	
12.0756	 18.737793	
12.1089	 18.676758	
12.1421	 18.737480	
12.1754	 18.753052	
12.2087	 18.722654	
12.2419	 18.737793	
12.2752	 18.768164	
12.3085	 18.707445	
12.3417	 18.738060	
12.375	 18.753052	
12.4083	 18.707275	
12.4415	 18.753052	
12.4748	 18.767656	
12.5081	 18.707275	
12.5413	 18.722534	
12.5746	 18.753052	
12.6079	 18.707275	
12.6411	 18.764900	
12.6744	 18.737793	
12.7077	 18.705946	
12.7409	 18.707275	
12.7742	 18.724058	
12.8075	 18.630981	
12.8407	 18.627548	
12.874	 18.649868	
12.9073	 18.676758	
12.9405	 18.626968	
12.9738	 18.648344	
13.0071	 18.637583	
13.0403	 18.679054	
13.0736	 18.618116	
13.1069	 18.613232	
13.1401	 18.692017	
13.1734	 18.618406	
13.2067	 18.633762	
13.2399	 18.667253	
13.2732	 18.636929	
13.3065	 18.634052	
13.3397	 18.661499	
13.373	 18.585205	
13.4062	 18.649601	
13.4395	 18.639326	
13.4728	 18.569946	
13.506	 18.600464	
13.5393	 18.657751	
13.5726	 18.554688	
13.6058	 18.607841	
13.6391	 18.661499	
13.6724	 18.600464	
13.7056	 18.676758	
13.7389	 18.657171	
13.7722	 18.604889	
13.8054	 18.630981	
13.8387	 18.667522	
13.872	 18.641525	
13.9052	 18.590841	
13.9385	 18.605371	
13.9718	 18.646240	
14.005	 18.615723	
14.0383	 18.641043	
14.0716	 18.661499	
14.1048	 18.646240	
14.1381	 18.676758	
14.1714	 18.619812	
14.2046	 18.590885	
14.2379	 18.619427	
14.2712	 18.533554	
14.3044	 18.548716	
14.3377	 18.637049	
14.371	 18.664734	
14.4042	 18.603201	
14.4375	 18.609365	
14.4708	 18.576401	
14.504	 18.624430	
14.5373	 18.670111	
14.5706	 18.600464	
14.6038	 18.647816	
14.6371	 18.683695	
14.6704	 18.623947	
14.7036	 18.654367	
14.7369	 18.692017	
14.7702	 18.630981	
14.8034	 18.692432	
14.8367	 18.638721	
14.87	 18.669113	
14.9032	 18.684305	
14.9365	 18.699467	
